<svg width="86" height="150" viewBox="0 0 86 150" fill="none" xmlns="http://www.w3.org/2000/svg">
    <path d="M5.59006 148.251L1.52123 138.398H0.083252L5.0018 149.918H6.14565L11.0642 138.398H9.67523L5.59006 148.251Z" fill="white" />
    <path d="M21.8716 138.398H13.6032V149.836H21.9533V148.66H14.8942V144.656H21.1363V143.48H14.8942V139.574H21.8716V138.398Z" fill="white" />
    <path d="M34.2955 149.836L30.7823 145.163C31.2289 145.087 31.6429 144.956 32.0242 144.771C32.4054 144.585 32.7323 144.357 33.0046 144.084C33.2878 143.801 33.5057 143.474 33.6582 143.104C33.8107 142.723 33.887 142.292 33.887 141.813C33.887 141.301 33.7889 140.838 33.5929 140.424C33.3968 139.999 33.119 139.64 32.7595 139.346C32.4 139.041 31.9642 138.806 31.4522 138.643C30.9511 138.479 30.3846 138.398 29.7528 138.398H24.8343V149.836H26.1252V145.392H29.3933L32.7105 149.836H34.2955ZM32.5797 141.862C32.5797 142.232 32.5035 142.565 32.351 142.859C32.2094 143.153 32.0078 143.403 31.7464 143.61C31.4849 143.807 31.1744 143.959 30.8149 144.068C30.4554 144.177 30.0633 144.231 29.6384 144.231H26.1252V139.591H29.6548C30.5807 139.591 31.2997 139.792 31.8117 140.195C32.3237 140.587 32.5797 141.143 32.5797 141.862Z" fill="white" />
    <path d="M37.0414 138.398V149.836H38.3323V138.398H37.0414Z" fill="white" />
    <path d="M42.9632 141.257C42.9632 140.996 43.0177 140.751 43.1266 140.522C43.2464 140.293 43.4098 140.097 43.6168 139.934C43.8347 139.77 44.0907 139.64 44.3848 139.542C44.6899 139.444 45.0276 139.395 45.398 139.395C45.9862 139.395 46.5472 139.493 47.081 139.689C47.6257 139.885 48.165 140.201 48.6988 140.636L49.4504 139.64C48.8622 139.171 48.2521 138.823 47.6203 138.594C46.9993 138.354 46.2695 138.234 45.4306 138.234C44.8859 138.234 44.3848 138.316 43.9273 138.479C43.4698 138.632 43.0721 138.85 42.7344 139.133C42.3967 139.405 42.1353 139.732 41.9501 140.114C41.7649 140.495 41.6723 140.914 41.6723 141.372C41.6723 141.851 41.7485 142.265 41.9011 142.614C42.0536 142.962 42.2878 143.267 42.6037 143.529C42.9196 143.79 43.3172 144.014 43.7966 144.199C44.2868 144.384 44.8587 144.547 45.5123 144.689C46.1115 144.82 46.6017 144.956 46.983 145.097C47.3752 145.239 47.6802 145.397 47.8981 145.571C48.116 145.746 48.2685 145.942 48.3556 146.16C48.4428 146.367 48.4863 146.606 48.4863 146.879C48.4863 147.467 48.2521 147.941 47.7837 148.3C47.3262 148.66 46.7107 148.839 45.9372 148.839C45.142 148.839 44.4393 148.709 43.8293 148.447C43.2192 148.175 42.6146 147.766 42.0154 147.222L41.2147 148.17C41.9011 148.79 42.62 149.253 43.3717 149.558C44.1343 149.853 44.9731 150 45.8882 150C46.4547 150 46.9776 149.923 47.4569 149.771C47.9362 149.618 48.3447 149.401 48.6824 149.117C49.031 148.834 49.3034 148.491 49.4995 148.088C49.6956 147.685 49.7936 147.238 49.7936 146.748C49.7936 145.865 49.4886 145.174 48.8785 144.673C48.2794 144.171 47.3425 143.779 46.0679 143.496C45.4361 143.365 44.9186 143.229 44.5156 143.088C44.1125 142.935 43.7966 142.772 43.5678 142.597C43.339 142.412 43.1811 142.211 43.0939 141.993C43.0068 141.775 42.9632 141.53 42.9632 141.257Z" fill="white" />
    <path d="M57.9048 138.316H56.6956L51.4829 149.836H52.8065L54.1628 146.813H60.3886L61.7285 149.836H63.1175L57.9048 138.316ZM59.882 145.653H54.6694L57.2839 139.819L59.882 145.653Z" fill="white" />
    <path d="M73.8765 138.398H65.6572V149.836H66.9481V144.852H73.1412V143.676H66.9481V139.591H73.8765V138.398Z" fill="white" />
    <path d="M84.9332 138.398H76.6648V149.836H85.0149V148.66H77.9557V144.656H84.1978V143.48H77.9557V139.574H84.9332V138.398Z" fill="white" />
    <path fill-rule="evenodd" clip-rule="evenodd" d="M78.9453 13.8574V40.7657H76.9027V13.8574H78.9453Z" fill="white" />
    <path fill-rule="evenodd" clip-rule="evenodd" d="M78.9453 62.293V87.1832H76.9027V62.293H78.9453Z" fill="white" />
    <path fill-rule="evenodd" clip-rule="evenodd" d="M76.5955 64.084L33.5422 40.5392L34.5222 38.7471L77.5755 62.2919L76.5955 64.084Z" fill="white" />
    <path fill-rule="evenodd" clip-rule="evenodd" d="M77.1895 41.8398L54.9901 28.3857L56.0488 26.6389L78.2481 40.093L77.1895 41.8398Z" fill="white" />
    <path fill-rule="evenodd" clip-rule="evenodd" d="M78.6069 15.6211L15.3724 52.62L14.3409 50.857L77.5754 13.8581L78.6069 15.6211Z" fill="white" />
    <path fill-rule="evenodd" clip-rule="evenodd" d="M77.2246 88.9512L13.3174 51.9523L14.3408 50.1845L78.248 87.1835L77.2246 88.9512Z" fill="white" />
    <path fill-rule="evenodd" clip-rule="evenodd" d="M34.7219 114.438L13.868 100.311L15.0136 98.6195L35.8675 112.746L34.7219 114.438Z" fill="white" />
    <path fill-rule="evenodd" clip-rule="evenodd" d="M34.1196 112.354L76.5002 86.1179L77.5753 87.8547L35.1948 114.09L34.1196 112.354Z" fill="white" />
    <path fill-rule="evenodd" clip-rule="evenodd" d="M14.6443 97.5352L54.334 73.9904L55.3762 75.7471L15.6864 99.2919L14.6443 97.5352Z" fill="white" />
    <path fill-rule="evenodd" clip-rule="evenodd" d="M13.6438 99.9648L13.6438 77.0928H15.6864L15.6864 99.9648H13.6438Z" fill="white" />
    <path fill-rule="evenodd" clip-rule="evenodd" d="M34.3069 88.3496L14.7984 78.9317L15.6864 77.0922L35.1949 86.5102L34.3069 88.3496Z" fill="white" />
    <path fill-rule="evenodd" clip-rule="evenodd" d="M12.9709 51.5293L12.9709 25.9664H15.0135L15.0135 51.5293H12.9709Z" fill="white" />
    <path fill-rule="evenodd" clip-rule="evenodd" d="M13.2859 25.5625L55.6665 -0.000387678L56.7215 1.74866L14.3409 27.3115L13.2859 25.5625Z" fill="white" />
    <path fill-rule="evenodd" clip-rule="evenodd" d="M56.4348 0.00195312L78.6342 13.4561L77.5755 15.2029L55.3761 1.74877L56.4348 0.00195312Z" fill="white" />
</svg>