<svg width="17" height="11" viewBox="0 0 17 11" fill="none" xmlns="http://www.w3.org/2000/svg">
    <path d="M8.49988 0.719605C5.64459 0.671438 2.69154 2.66681 0.835003 4.71035C0.640129 4.9267 0.532288 5.20755 0.532288 5.49873C0.532288 5.7899 0.640129 6.07075 0.835003 6.2871C2.65117 8.28743 5.59571 10.3288 8.49988 10.28C11.404 10.3288 14.3493 8.28743 16.1669 6.2871C16.3618 6.07075 16.4696 5.7899 16.4696 5.49873C16.4696 5.20755 16.3618 4.9267 16.1669 4.71035C14.3082 2.66681 11.3552 0.671438 8.49988 0.719605Z" stroke="#707070" stroke-linecap="round" stroke-linejoin="round" />
    <path d="M11.1563 5.50071C11.1561 6.02604 11.0002 6.53952 10.7082 6.97625C10.4163 7.41297 10.0014 7.75332 9.51601 7.95426C9.03063 8.1552 8.49657 8.2077 7.98136 8.10513C7.46614 8.00255 6.99291 7.74951 6.6215 7.378C6.25009 7.00649 5.99717 6.53319 5.89474 6.01795C5.7923 5.50271 5.84495 4.96866 6.04601 4.48333C6.24708 3.99801 6.58754 3.5832 7.02434 3.29136C7.46114 2.99952 7.97467 2.84375 8.5 2.84375C8.84891 2.84366 9.19442 2.91232 9.51678 3.04582C9.83914 3.17932 10.132 3.37504 10.3787 3.62179C10.6254 3.86854 10.821 4.16148 10.9544 4.48388C11.0879 4.80627 11.1564 5.1518 11.1563 5.50071Z" stroke="#707070" stroke-linecap="round" stroke-linejoin="round" />
</svg>